<svg xmlns="http://www.w3.org/2000/svg" fill="none" viewBox="108.67 45.43 391.09 409.07">
<path d="M227.733 46.8C197.333 51.2 168.667 65.4666 148 86.5333C130.267 104.4 119.733 123.467 112.267 150.533L108.667 163.333V250V336.667L112.4 350C116.933 366.4 126.933 387.067 135.733 398.667C143.2 408.533 159.333 424.267 168.4 430.4C177.6 436.8 194 444.667 206 448.4C221.733 453.333 236.667 455.2 254.533 454.267C283.867 452.8 306.133 444.4 333.867 424.267C356.267 408 374.533 397.067 397.333 386.667C424.4 374.133 430 371.2 440.933 363.733C452.133 356 470.533 337.333 477.733 326.4C493.067 303.067 501.467 269.733 499.467 239.867C496.933 203.467 477.333 164.8 450.267 143.067C444.933 138.667 429.733 129.067 416.533 121.467C403.467 113.867 376.533 98.1333 356.667 86.6666C336.933 75.0666 315.867 63.2 310 60.2666C284.8 47.6 255.067 42.8 227.733 46.8ZM345.067 108C367.2 113.2 388 132.533 394.667 154.267C397.2 162.533 397.333 166.533 397.333 251.867C397.333 348.667 397.467 346.533 389.6 362C385.333 370.533 370.533 385.333 362 389.6C348.667 396.267 342 397.733 327.467 397.067C307.6 396.133 309.867 397.2 236.667 354.667C216.933 343.2 192.933 329.333 183.333 324C173.867 318.667 162.667 312 158.667 309.2C129.467 289.6 119.6 252.4 135.333 221.2C140.133 211.733 148.4 202.267 156.133 197.067C164.933 191.333 287.2 120.533 297.333 115.333C313.2 107.2 330.267 104.667 345.067 108Z" fill="black"/>
<path d="M344.83 229.243L243.348 288.711C253.1 304.211 264.097 314.403 276.339 319.288C288.649 323.91 302.95 321.448 319.24 311.902C326.222 307.81 331.802 303.424 335.981 298.742C340.16 294.06 343.118 289.2 344.856 284.163C346.76 279.027 347.706 273.783 347.696 268.43L360.592 267.572C360.883 274.548 359.904 281.262 357.657 287.715C355.409 294.169 351.677 300.375 346.46 306.335C341.312 312.031 334.333 317.461 325.523 322.623C311.726 330.708 299.03 334.575 287.436 334.224C275.841 333.872 265.224 330.045 255.585 322.741C246.112 315.34 237.479 304.991 229.686 291.692C221.991 278.56 217.181 265.97 215.258 253.922C213.334 241.874 215.052 230.707 220.413 220.42C225.773 210.133 235.269 200.995 248.9 193.008C262.032 185.312 274.229 181.738 285.491 182.284C296.754 182.831 307.17 186.887 316.74 194.454C326.213 201.855 334.797 212.122 342.493 225.254L344.83 229.243ZM237.753 278.591L327.267 226.137C318.597 211.343 308.156 201.718 295.943 197.262C283.896 192.71 270.309 194.865 255.183 203.73C239.391 212.983 230.454 224.026 228.371 236.859C226.191 249.525 229.318 263.436 237.753 278.591Z" fill="black"/>
</svg>